<mxfile host="app.diagrams.net" modified="2022-10-17T08:33:17.317Z" agent="5.0 (Windows)" etag="xqg8wguDJVYN9JwcgtfZ" version="20.4.0" type="github">
  <diagram id="C5RBs43oDa-KdzZeNtuy" name="Page-1">
    <mxGraphModel dx="1422" dy="780" grid="1" gridSize="10" guides="1" tooltips="1" connect="1" arrows="1" fold="1" page="1" pageScale="1" pageWidth="827" pageHeight="1169" math="0" shadow="0">
      <root>
        <mxCell id="WIyWlLk6GJQsqaUBKTNV-0" />
        <mxCell id="WIyWlLk6GJQsqaUBKTNV-1" parent="WIyWlLk6GJQsqaUBKTNV-0" />
        <mxCell id="7nmXqfAK1qRtBDQloMW5-14" style="edgeStyle=orthogonalEdgeStyle;rounded=0;orthogonalLoop=1;jettySize=auto;html=1;exitX=0.5;exitY=0;exitDx=0;exitDy=0;entryX=0.5;entryY=0;entryDx=0;entryDy=0;" edge="1" parent="WIyWlLk6GJQsqaUBKTNV-1" source="7nmXqfAK1qRtBDQloMW5-2" target="7nmXqfAK1qRtBDQloMW5-9">
          <mxGeometry relative="1" as="geometry" />
        </mxCell>
        <mxCell id="7nmXqfAK1qRtBDQloMW5-15" value="yes" style="edgeLabel;html=1;align=center;verticalAlign=middle;resizable=0;points=[];" vertex="1" connectable="0" parent="7nmXqfAK1qRtBDQloMW5-14">
          <mxGeometry x="-0.8342" y="2" relative="1" as="geometry">
            <mxPoint as="offset" />
          </mxGeometry>
        </mxCell>
        <mxCell id="7nmXqfAK1qRtBDQloMW5-17" value="" style="edgeStyle=orthogonalEdgeStyle;rounded=0;orthogonalLoop=1;jettySize=auto;html=1;" edge="1" parent="WIyWlLk6GJQsqaUBKTNV-1" source="7nmXqfAK1qRtBDQloMW5-2" target="7nmXqfAK1qRtBDQloMW5-16">
          <mxGeometry relative="1" as="geometry" />
        </mxCell>
        <mxCell id="7nmXqfAK1qRtBDQloMW5-18" value="no" style="edgeLabel;html=1;align=center;verticalAlign=middle;resizable=0;points=[];" vertex="1" connectable="0" parent="7nmXqfAK1qRtBDQloMW5-17">
          <mxGeometry x="-0.3302" y="-1" relative="1" as="geometry">
            <mxPoint as="offset" />
          </mxGeometry>
        </mxCell>
        <mxCell id="7nmXqfAK1qRtBDQloMW5-2" value="&lt;div&gt;permitStatus!=submitted&lt;/div&gt;&lt;div&gt;&amp;amp;&amp;amp;&lt;/div&gt;&lt;div&gt;permitStatus!=in-use&lt;/div&gt;" style="rhombus;whiteSpace=wrap;html=1;" vertex="1" parent="WIyWlLk6GJQsqaUBKTNV-1">
          <mxGeometry x="599" y="50" width="200" height="115" as="geometry" />
        </mxCell>
        <mxCell id="7nmXqfAK1qRtBDQloMW5-8" value="" style="edgeStyle=orthogonalEdgeStyle;rounded=0;orthogonalLoop=1;jettySize=auto;html=1;" edge="1" parent="WIyWlLk6GJQsqaUBKTNV-1" source="7nmXqfAK1qRtBDQloMW5-9" target="7nmXqfAK1qRtBDQloMW5-11">
          <mxGeometry relative="1" as="geometry" />
        </mxCell>
        <mxCell id="7nmXqfAK1qRtBDQloMW5-9" value="开始" style="rounded=1;whiteSpace=wrap;html=1;fontSize=12;glass=0;strokeWidth=1;shadow=0;" vertex="1" parent="WIyWlLk6GJQsqaUBKTNV-1">
          <mxGeometry x="29" y="87.5" width="120" height="40" as="geometry" />
        </mxCell>
        <mxCell id="7nmXqfAK1qRtBDQloMW5-10" value="" style="edgeStyle=orthogonalEdgeStyle;rounded=0;orthogonalLoop=1;jettySize=auto;html=1;" edge="1" parent="WIyWlLk6GJQsqaUBKTNV-1" source="7nmXqfAK1qRtBDQloMW5-11" target="7nmXqfAK1qRtBDQloMW5-12">
          <mxGeometry relative="1" as="geometry" />
        </mxCell>
        <mxCell id="7nmXqfAK1qRtBDQloMW5-11" value="查询approvalLog记录" style="rounded=1;whiteSpace=wrap;html=1;glass=0;strokeWidth=1;shadow=0;" vertex="1" parent="WIyWlLk6GJQsqaUBKTNV-1">
          <mxGeometry x="209" y="77.5" width="120" height="60" as="geometry" />
        </mxCell>
        <mxCell id="7nmXqfAK1qRtBDQloMW5-13" style="edgeStyle=orthogonalEdgeStyle;rounded=0;orthogonalLoop=1;jettySize=auto;html=1;exitX=1;exitY=0.5;exitDx=0;exitDy=0;entryX=0;entryY=0.5;entryDx=0;entryDy=0;" edge="1" parent="WIyWlLk6GJQsqaUBKTNV-1" source="7nmXqfAK1qRtBDQloMW5-12" target="7nmXqfAK1qRtBDQloMW5-2">
          <mxGeometry relative="1" as="geometry" />
        </mxCell>
        <mxCell id="7nmXqfAK1qRtBDQloMW5-12" value="&lt;div&gt;查询&lt;/div&gt;&lt;div&gt;importPermitApplication&lt;br&gt;&lt;/div&gt;" style="whiteSpace=wrap;html=1;rounded=1;glass=0;strokeWidth=1;shadow=0;" vertex="1" parent="WIyWlLk6GJQsqaUBKTNV-1">
          <mxGeometry x="409" y="77.5" width="140" height="60" as="geometry" />
        </mxCell>
        <mxCell id="7nmXqfAK1qRtBDQloMW5-20" value="" style="edgeStyle=orthogonalEdgeStyle;rounded=0;orthogonalLoop=1;jettySize=auto;html=1;" edge="1" parent="WIyWlLk6GJQsqaUBKTNV-1" source="7nmXqfAK1qRtBDQloMW5-16" target="7nmXqfAK1qRtBDQloMW5-19">
          <mxGeometry relative="1" as="geometry" />
        </mxCell>
        <mxCell id="7nmXqfAK1qRtBDQloMW5-16" value="&lt;div&gt;用&lt;br&gt;&lt;/div&gt;&lt;div&gt;importPermitItemIds&lt;/div&gt;&lt;div&gt;查询permitItem集合&lt;br&gt;&lt;/div&gt;" style="rounded=1;whiteSpace=wrap;html=1;" vertex="1" parent="WIyWlLk6GJQsqaUBKTNV-1">
          <mxGeometry x="639" y="220" width="120" height="60" as="geometry" />
        </mxCell>
        <mxCell id="7nmXqfAK1qRtBDQloMW5-22" style="edgeStyle=orthogonalEdgeStyle;rounded=0;orthogonalLoop=1;jettySize=auto;html=1;exitX=0;exitY=0.5;exitDx=0;exitDy=0;entryX=1;entryY=0.5;entryDx=0;entryDy=0;" edge="1" parent="WIyWlLk6GJQsqaUBKTNV-1" source="7nmXqfAK1qRtBDQloMW5-19" target="7nmXqfAK1qRtBDQloMW5-21">
          <mxGeometry relative="1" as="geometry" />
        </mxCell>
        <mxCell id="7nmXqfAK1qRtBDQloMW5-19" value="&lt;div&gt;遍历&lt;br&gt;&lt;/div&gt;&lt;div&gt;importPermitItems&lt;/div&gt;" style="whiteSpace=wrap;html=1;rounded=1;" vertex="1" parent="WIyWlLk6GJQsqaUBKTNV-1">
          <mxGeometry x="490" y="220" width="120" height="60" as="geometry" />
        </mxCell>
        <mxCell id="7nmXqfAK1qRtBDQloMW5-30" value="" style="edgeStyle=orthogonalEdgeStyle;rounded=0;orthogonalLoop=1;jettySize=auto;html=1;" edge="1" parent="WIyWlLk6GJQsqaUBKTNV-1" source="7nmXqfAK1qRtBDQloMW5-21" target="7nmXqfAK1qRtBDQloMW5-29">
          <mxGeometry relative="1" as="geometry" />
        </mxCell>
        <mxCell id="7nmXqfAK1qRtBDQloMW5-31" value="yes" style="edgeLabel;html=1;align=center;verticalAlign=middle;resizable=0;points=[];" vertex="1" connectable="0" parent="7nmXqfAK1qRtBDQloMW5-30">
          <mxGeometry x="-0.68" relative="1" as="geometry">
            <mxPoint x="-14" as="offset" />
          </mxGeometry>
        </mxCell>
        <mxCell id="7nmXqfAK1qRtBDQloMW5-82" style="edgeStyle=orthogonalEdgeStyle;rounded=0;orthogonalLoop=1;jettySize=auto;html=1;exitX=0.5;exitY=1;exitDx=0;exitDy=0;entryX=0.5;entryY=0;entryDx=0;entryDy=0;" edge="1" parent="WIyWlLk6GJQsqaUBKTNV-1" source="7nmXqfAK1qRtBDQloMW5-21" target="7nmXqfAK1qRtBDQloMW5-32">
          <mxGeometry relative="1" as="geometry">
            <Array as="points">
              <mxPoint x="400" y="310" />
              <mxPoint x="107" y="310" />
            </Array>
          </mxGeometry>
        </mxCell>
        <mxCell id="7nmXqfAK1qRtBDQloMW5-83" value="no" style="edgeLabel;html=1;align=center;verticalAlign=middle;resizable=0;points=[];" vertex="1" connectable="0" parent="7nmXqfAK1qRtBDQloMW5-82">
          <mxGeometry x="-0.3965" y="-2" relative="1" as="geometry">
            <mxPoint as="offset" />
          </mxGeometry>
        </mxCell>
        <mxCell id="7nmXqfAK1qRtBDQloMW5-21" value="&lt;div&gt;check是否&lt;/div&gt;&lt;div&gt;被shipment&lt;/div&gt;&lt;div&gt;使用了&lt;br&gt;&lt;/div&gt;" style="rhombus;whiteSpace=wrap;html=1;" vertex="1" parent="WIyWlLk6GJQsqaUBKTNV-1">
          <mxGeometry x="350" y="205" width="100" height="90" as="geometry" />
        </mxCell>
        <mxCell id="7nmXqfAK1qRtBDQloMW5-73" value="" style="edgeStyle=orthogonalEdgeStyle;rounded=0;orthogonalLoop=1;jettySize=auto;html=1;" edge="1" parent="WIyWlLk6GJQsqaUBKTNV-1" source="7nmXqfAK1qRtBDQloMW5-29" target="7nmXqfAK1qRtBDQloMW5-72">
          <mxGeometry relative="1" as="geometry" />
        </mxCell>
        <mxCell id="7nmXqfAK1qRtBDQloMW5-29" value="&lt;div&gt;errorMessage添加&lt;/div&gt;&lt;div&gt;错误日志&lt;br&gt;&lt;/div&gt;" style="rounded=1;whiteSpace=wrap;html=1;" vertex="1" parent="WIyWlLk6GJQsqaUBKTNV-1">
          <mxGeometry x="190" y="220" width="120" height="60" as="geometry" />
        </mxCell>
        <mxCell id="7nmXqfAK1qRtBDQloMW5-33" style="edgeStyle=orthogonalEdgeStyle;rounded=0;orthogonalLoop=1;jettySize=auto;html=1;exitX=0;exitY=0.5;exitDx=0;exitDy=0;entryX=0.5;entryY=1;entryDx=0;entryDy=0;" edge="1" parent="WIyWlLk6GJQsqaUBKTNV-1" source="7nmXqfAK1qRtBDQloMW5-32" target="7nmXqfAK1qRtBDQloMW5-9">
          <mxGeometry relative="1" as="geometry">
            <Array as="points">
              <mxPoint x="30" y="370" />
              <mxPoint x="30" y="160" />
              <mxPoint x="89" y="160" />
            </Array>
          </mxGeometry>
        </mxCell>
        <mxCell id="7nmXqfAK1qRtBDQloMW5-34" value="yes" style="edgeLabel;html=1;align=center;verticalAlign=middle;resizable=0;points=[];" vertex="1" connectable="0" parent="7nmXqfAK1qRtBDQloMW5-33">
          <mxGeometry x="-0.6163" y="2" relative="1" as="geometry">
            <mxPoint as="offset" />
          </mxGeometry>
        </mxCell>
        <mxCell id="7nmXqfAK1qRtBDQloMW5-36" value="" style="edgeStyle=orthogonalEdgeStyle;rounded=0;orthogonalLoop=1;jettySize=auto;html=1;" edge="1" parent="WIyWlLk6GJQsqaUBKTNV-1" source="7nmXqfAK1qRtBDQloMW5-32" target="7nmXqfAK1qRtBDQloMW5-35">
          <mxGeometry relative="1" as="geometry" />
        </mxCell>
        <mxCell id="7nmXqfAK1qRtBDQloMW5-37" value="no" style="edgeLabel;html=1;align=center;verticalAlign=middle;resizable=0;points=[];" vertex="1" connectable="0" parent="7nmXqfAK1qRtBDQloMW5-36">
          <mxGeometry x="-0.6923" y="-1" relative="1" as="geometry">
            <mxPoint x="9" y="-1" as="offset" />
          </mxGeometry>
        </mxCell>
        <mxCell id="7nmXqfAK1qRtBDQloMW5-32" value="&lt;div&gt;errorMessage&lt;/div&gt;&lt;div&gt;&amp;gt;0&lt;br&gt;&lt;/div&gt;" style="rhombus;whiteSpace=wrap;html=1;" vertex="1" parent="WIyWlLk6GJQsqaUBKTNV-1">
          <mxGeometry x="56.870000000000005" y="330" width="100" height="80" as="geometry" />
        </mxCell>
        <mxCell id="7nmXqfAK1qRtBDQloMW5-39" value="" style="edgeStyle=orthogonalEdgeStyle;rounded=0;orthogonalLoop=1;jettySize=auto;html=1;" edge="1" parent="WIyWlLk6GJQsqaUBKTNV-1" source="7nmXqfAK1qRtBDQloMW5-35" target="7nmXqfAK1qRtBDQloMW5-38">
          <mxGeometry relative="1" as="geometry" />
        </mxCell>
        <mxCell id="7nmXqfAK1qRtBDQloMW5-35" value="&lt;div&gt;修改approvalLog&lt;/div&gt;&lt;div&gt;状态为已审核&lt;br&gt;&lt;/div&gt;" style="rounded=1;whiteSpace=wrap;html=1;" vertex="1" parent="WIyWlLk6GJQsqaUBKTNV-1">
          <mxGeometry x="220" y="340" width="120" height="60" as="geometry" />
        </mxCell>
        <mxCell id="7nmXqfAK1qRtBDQloMW5-43" style="edgeStyle=orthogonalEdgeStyle;rounded=0;orthogonalLoop=1;jettySize=auto;html=1;exitX=0.5;exitY=1;exitDx=0;exitDy=0;entryX=0.5;entryY=0;entryDx=0;entryDy=0;" edge="1" parent="WIyWlLk6GJQsqaUBKTNV-1" source="7nmXqfAK1qRtBDQloMW5-38" target="7nmXqfAK1qRtBDQloMW5-42">
          <mxGeometry relative="1" as="geometry" />
        </mxCell>
        <mxCell id="7nmXqfAK1qRtBDQloMW5-38" value="&lt;div&gt;遍历&lt;/div&gt;&lt;div&gt;importPermitItems&lt;br&gt;&lt;/div&gt;" style="rounded=1;whiteSpace=wrap;html=1;" vertex="1" parent="WIyWlLk6GJQsqaUBKTNV-1">
          <mxGeometry x="427.5" y="340" width="120" height="60" as="geometry" />
        </mxCell>
        <mxCell id="7nmXqfAK1qRtBDQloMW5-46" value="" style="edgeStyle=orthogonalEdgeStyle;rounded=0;orthogonalLoop=1;jettySize=auto;html=1;entryX=1;entryY=0.5;entryDx=0;entryDy=0;" edge="1" parent="WIyWlLk6GJQsqaUBKTNV-1" source="7nmXqfAK1qRtBDQloMW5-42" target="7nmXqfAK1qRtBDQloMW5-48">
          <mxGeometry relative="1" as="geometry">
            <mxPoint x="390" y="585" as="targetPoint" />
          </mxGeometry>
        </mxCell>
        <mxCell id="7nmXqfAK1qRtBDQloMW5-47" value="yes" style="edgeLabel;html=1;align=center;verticalAlign=middle;resizable=0;points=[];" vertex="1" connectable="0" parent="7nmXqfAK1qRtBDQloMW5-46">
          <mxGeometry x="-0.6828" y="1" relative="1" as="geometry">
            <mxPoint x="-6" y="-1" as="offset" />
          </mxGeometry>
        </mxCell>
        <mxCell id="7nmXqfAK1qRtBDQloMW5-60" style="edgeStyle=orthogonalEdgeStyle;rounded=0;orthogonalLoop=1;jettySize=auto;html=1;exitX=0.5;exitY=1;exitDx=0;exitDy=0;entryX=0.5;entryY=0;entryDx=0;entryDy=0;" edge="1" parent="WIyWlLk6GJQsqaUBKTNV-1" source="7nmXqfAK1qRtBDQloMW5-42" target="7nmXqfAK1qRtBDQloMW5-56">
          <mxGeometry relative="1" as="geometry">
            <Array as="points">
              <mxPoint x="607" y="550" />
              <mxPoint x="380" y="550" />
            </Array>
          </mxGeometry>
        </mxCell>
        <mxCell id="7nmXqfAK1qRtBDQloMW5-61" value="no" style="edgeLabel;html=1;align=center;verticalAlign=middle;resizable=0;points=[];" vertex="1" connectable="0" parent="7nmXqfAK1qRtBDQloMW5-60">
          <mxGeometry x="-0.6275" y="2" relative="1" as="geometry">
            <mxPoint as="offset" />
          </mxGeometry>
        </mxCell>
        <mxCell id="7nmXqfAK1qRtBDQloMW5-42" value="&lt;div&gt;specAppravalId&lt;/div&gt;&lt;div&gt;不为空&lt;br&gt;&lt;/div&gt;" style="rhombus;whiteSpace=wrap;html=1;" vertex="1" parent="WIyWlLk6GJQsqaUBKTNV-1">
          <mxGeometry x="551.5" y="440" width="110" height="90" as="geometry" />
        </mxCell>
        <mxCell id="7nmXqfAK1qRtBDQloMW5-52" value="" style="edgeStyle=orthogonalEdgeStyle;rounded=0;orthogonalLoop=1;jettySize=auto;html=1;" edge="1" parent="WIyWlLk6GJQsqaUBKTNV-1" source="7nmXqfAK1qRtBDQloMW5-48" target="7nmXqfAK1qRtBDQloMW5-51">
          <mxGeometry relative="1" as="geometry" />
        </mxCell>
        <mxCell id="7nmXqfAK1qRtBDQloMW5-53" value="yes" style="edgeLabel;html=1;align=center;verticalAlign=middle;resizable=0;points=[];" vertex="1" connectable="0" parent="7nmXqfAK1qRtBDQloMW5-52">
          <mxGeometry x="-0.6941" y="-1" relative="1" as="geometry">
            <mxPoint x="-11" y="1" as="offset" />
          </mxGeometry>
        </mxCell>
        <mxCell id="7nmXqfAK1qRtBDQloMW5-58" style="edgeStyle=orthogonalEdgeStyle;rounded=0;orthogonalLoop=1;jettySize=auto;html=1;exitX=0.5;exitY=1;exitDx=0;exitDy=0;entryX=0.5;entryY=0;entryDx=0;entryDy=0;" edge="1" parent="WIyWlLk6GJQsqaUBKTNV-1" source="7nmXqfAK1qRtBDQloMW5-48" target="7nmXqfAK1qRtBDQloMW5-56">
          <mxGeometry relative="1" as="geometry" />
        </mxCell>
        <mxCell id="7nmXqfAK1qRtBDQloMW5-59" value="no" style="edgeLabel;html=1;align=center;verticalAlign=middle;resizable=0;points=[];" vertex="1" connectable="0" parent="7nmXqfAK1qRtBDQloMW5-58">
          <mxGeometry x="-0.2667" y="-2" relative="1" as="geometry">
            <mxPoint as="offset" />
          </mxGeometry>
        </mxCell>
        <mxCell id="7nmXqfAK1qRtBDQloMW5-48" value="根据specAppravalId和itemCode查询specItem是否存在" style="rhombus;whiteSpace=wrap;html=1;" vertex="1" parent="WIyWlLk6GJQsqaUBKTNV-1">
          <mxGeometry x="310" y="430" width="140" height="110" as="geometry" />
        </mxCell>
        <mxCell id="7nmXqfAK1qRtBDQloMW5-55" value="" style="edgeStyle=orthogonalEdgeStyle;rounded=0;orthogonalLoop=1;jettySize=auto;html=1;" edge="1" parent="WIyWlLk6GJQsqaUBKTNV-1" source="7nmXqfAK1qRtBDQloMW5-51" target="7nmXqfAK1qRtBDQloMW5-54">
          <mxGeometry relative="1" as="geometry" />
        </mxCell>
        <mxCell id="7nmXqfAK1qRtBDQloMW5-51" value="&lt;div&gt;specItem.baleaceQit&lt;/div&gt;&lt;div&gt;=specItem.baleaceQit&lt;/div&gt;&lt;div&gt;+permitItem.ApplQiy&lt;br&gt;&lt;/div&gt;" style="rounded=1;whiteSpace=wrap;html=1;" vertex="1" parent="WIyWlLk6GJQsqaUBKTNV-1">
          <mxGeometry x="45" y="455" width="150" height="60" as="geometry" />
        </mxCell>
        <mxCell id="7nmXqfAK1qRtBDQloMW5-57" style="edgeStyle=orthogonalEdgeStyle;rounded=0;orthogonalLoop=1;jettySize=auto;html=1;exitX=1;exitY=0.5;exitDx=0;exitDy=0;" edge="1" parent="WIyWlLk6GJQsqaUBKTNV-1" source="7nmXqfAK1qRtBDQloMW5-54" target="7nmXqfAK1qRtBDQloMW5-56">
          <mxGeometry relative="1" as="geometry" />
        </mxCell>
        <mxCell id="7nmXqfAK1qRtBDQloMW5-54" value="&lt;div&gt;提交事务&lt;br&gt;&lt;/div&gt;&lt;div&gt;更新数据库&lt;/div&gt;" style="rounded=1;whiteSpace=wrap;html=1;" vertex="1" parent="WIyWlLk6GJQsqaUBKTNV-1">
          <mxGeometry x="60" y="620" width="120" height="60" as="geometry" />
        </mxCell>
        <mxCell id="7nmXqfAK1qRtBDQloMW5-63" value="" style="edgeStyle=orthogonalEdgeStyle;rounded=0;orthogonalLoop=1;jettySize=auto;html=1;" edge="1" parent="WIyWlLk6GJQsqaUBKTNV-1" source="7nmXqfAK1qRtBDQloMW5-56" target="7nmXqfAK1qRtBDQloMW5-62">
          <mxGeometry relative="1" as="geometry" />
        </mxCell>
        <mxCell id="7nmXqfAK1qRtBDQloMW5-64" value="yes" style="edgeLabel;html=1;align=center;verticalAlign=middle;resizable=0;points=[];" vertex="1" connectable="0" parent="7nmXqfAK1qRtBDQloMW5-63">
          <mxGeometry x="-0.2903" y="-1" relative="1" as="geometry">
            <mxPoint x="-3" y="-1" as="offset" />
          </mxGeometry>
        </mxCell>
        <mxCell id="7nmXqfAK1qRtBDQloMW5-56" value="&lt;div&gt;permitApplStatus&lt;/div&gt;&lt;div&gt;== in-use&lt;br&gt;&lt;/div&gt;" style="rhombus;whiteSpace=wrap;html=1;" vertex="1" parent="WIyWlLk6GJQsqaUBKTNV-1">
          <mxGeometry x="315" y="595" width="130" height="110" as="geometry" />
        </mxCell>
        <mxCell id="7nmXqfAK1qRtBDQloMW5-66" value="" style="edgeStyle=orthogonalEdgeStyle;rounded=0;orthogonalLoop=1;jettySize=auto;html=1;" edge="1" parent="WIyWlLk6GJQsqaUBKTNV-1" source="7nmXqfAK1qRtBDQloMW5-62" target="7nmXqfAK1qRtBDQloMW5-65">
          <mxGeometry relative="1" as="geometry" />
        </mxCell>
        <mxCell id="7nmXqfAK1qRtBDQloMW5-62" value="查询dbImportPermit" style="rounded=1;whiteSpace=wrap;html=1;" vertex="1" parent="WIyWlLk6GJQsqaUBKTNV-1">
          <mxGeometry x="519" y="710" width="120" height="60" as="geometry" />
        </mxCell>
        <mxCell id="7nmXqfAK1qRtBDQloMW5-69" value="" style="edgeStyle=orthogonalEdgeStyle;rounded=0;orthogonalLoop=1;jettySize=auto;html=1;" edge="1" parent="WIyWlLk6GJQsqaUBKTNV-1" source="7nmXqfAK1qRtBDQloMW5-65" target="7nmXqfAK1qRtBDQloMW5-68">
          <mxGeometry relative="1" as="geometry" />
        </mxCell>
        <mxCell id="7nmXqfAK1qRtBDQloMW5-65" value="&lt;div&gt;dbImportPermit的&lt;/div&gt;&lt;div&gt;TotalQuantity-itemApplQIT&lt;/div&gt;&lt;div&gt;BalanceQuantity-itemBalanceQit&lt;br&gt;&lt;/div&gt;" style="rounded=1;whiteSpace=wrap;html=1;" vertex="1" parent="WIyWlLk6GJQsqaUBKTNV-1">
          <mxGeometry x="496.5" y="830" width="165" height="80" as="geometry" />
        </mxCell>
        <mxCell id="7nmXqfAK1qRtBDQloMW5-70" style="edgeStyle=orthogonalEdgeStyle;rounded=0;orthogonalLoop=1;jettySize=auto;html=1;exitX=1;exitY=0.5;exitDx=0;exitDy=0;entryX=1;entryY=0.5;entryDx=0;entryDy=0;" edge="1" parent="WIyWlLk6GJQsqaUBKTNV-1" source="7nmXqfAK1qRtBDQloMW5-68" target="7nmXqfAK1qRtBDQloMW5-38">
          <mxGeometry relative="1" as="geometry">
            <Array as="points">
              <mxPoint x="700" y="991" />
              <mxPoint x="700" y="370" />
            </Array>
          </mxGeometry>
        </mxCell>
        <mxCell id="7nmXqfAK1qRtBDQloMW5-71" value="no" style="edgeLabel;html=1;align=center;verticalAlign=middle;resizable=0;points=[];" vertex="1" connectable="0" parent="7nmXqfAK1qRtBDQloMW5-70">
          <mxGeometry x="-0.9398" y="1" relative="1" as="geometry">
            <mxPoint x="18" y="1" as="offset" />
          </mxGeometry>
        </mxCell>
        <mxCell id="7nmXqfAK1qRtBDQloMW5-79" value="" style="edgeStyle=orthogonalEdgeStyle;rounded=0;orthogonalLoop=1;jettySize=auto;html=1;" edge="1" parent="WIyWlLk6GJQsqaUBKTNV-1" source="7nmXqfAK1qRtBDQloMW5-68" target="7nmXqfAK1qRtBDQloMW5-78">
          <mxGeometry relative="1" as="geometry" />
        </mxCell>
        <mxCell id="7nmXqfAK1qRtBDQloMW5-68" value="&lt;div&gt;check 是否最&lt;/div&gt;&lt;div&gt;后一条记录&lt;/div&gt;" style="rhombus;whiteSpace=wrap;html=1;" vertex="1" parent="WIyWlLk6GJQsqaUBKTNV-1">
          <mxGeometry x="526.26" y="950" width="103.74" height="81" as="geometry" />
        </mxCell>
        <mxCell id="7nmXqfAK1qRtBDQloMW5-74" style="edgeStyle=orthogonalEdgeStyle;rounded=0;orthogonalLoop=1;jettySize=auto;html=1;exitX=0.5;exitY=0;exitDx=0;exitDy=0;entryX=0.5;entryY=0;entryDx=0;entryDy=0;" edge="1" parent="WIyWlLk6GJQsqaUBKTNV-1" source="7nmXqfAK1qRtBDQloMW5-72" target="7nmXqfAK1qRtBDQloMW5-19">
          <mxGeometry relative="1" as="geometry" />
        </mxCell>
        <mxCell id="7nmXqfAK1qRtBDQloMW5-75" value="no" style="edgeLabel;html=1;align=center;verticalAlign=middle;resizable=0;points=[];" vertex="1" connectable="0" parent="7nmXqfAK1qRtBDQloMW5-74">
          <mxGeometry x="-0.6569" y="1" relative="1" as="geometry">
            <mxPoint y="1" as="offset" />
          </mxGeometry>
        </mxCell>
        <mxCell id="7nmXqfAK1qRtBDQloMW5-76" style="edgeStyle=orthogonalEdgeStyle;rounded=0;orthogonalLoop=1;jettySize=auto;html=1;exitX=0.5;exitY=1;exitDx=0;exitDy=0;entryX=0.5;entryY=0;entryDx=0;entryDy=0;" edge="1" parent="WIyWlLk6GJQsqaUBKTNV-1" source="7nmXqfAK1qRtBDQloMW5-72" target="7nmXqfAK1qRtBDQloMW5-32">
          <mxGeometry relative="1" as="geometry" />
        </mxCell>
        <mxCell id="7nmXqfAK1qRtBDQloMW5-77" value="yes" style="edgeLabel;html=1;align=center;verticalAlign=middle;resizable=0;points=[];" vertex="1" connectable="0" parent="7nmXqfAK1qRtBDQloMW5-76">
          <mxGeometry x="-0.3025" y="-2" relative="1" as="geometry">
            <mxPoint y="1" as="offset" />
          </mxGeometry>
        </mxCell>
        <mxCell id="7nmXqfAK1qRtBDQloMW5-72" value="&lt;div&gt;check 是否最&lt;/div&gt;&lt;div&gt;后一条记录&lt;/div&gt;" style="rhombus;whiteSpace=wrap;html=1;" vertex="1" parent="WIyWlLk6GJQsqaUBKTNV-1">
          <mxGeometry x="53.12999999999999" y="209.5" width="103.74" height="81" as="geometry" />
        </mxCell>
        <mxCell id="7nmXqfAK1qRtBDQloMW5-81" value="" style="edgeStyle=orthogonalEdgeStyle;rounded=0;orthogonalLoop=1;jettySize=auto;html=1;" edge="1" parent="WIyWlLk6GJQsqaUBKTNV-1" source="7nmXqfAK1qRtBDQloMW5-78" target="7nmXqfAK1qRtBDQloMW5-80">
          <mxGeometry relative="1" as="geometry" />
        </mxCell>
        <mxCell id="7nmXqfAK1qRtBDQloMW5-78" value="&lt;div&gt;提交事务&lt;br&gt;&lt;/div&gt;&lt;div&gt;更新数据库&lt;/div&gt;" style="rounded=1;whiteSpace=wrap;html=1;" vertex="1" parent="WIyWlLk6GJQsqaUBKTNV-1">
          <mxGeometry x="334.39" y="960.5" width="120" height="60" as="geometry" />
        </mxCell>
        <mxCell id="7nmXqfAK1qRtBDQloMW5-80" value="end" style="whiteSpace=wrap;html=1;rounded=1;" vertex="1" parent="WIyWlLk6GJQsqaUBKTNV-1">
          <mxGeometry x="134.39" y="960.5" width="120" height="60" as="geometry" />
        </mxCell>
      </root>
    </mxGraphModel>
  </diagram>
</mxfile>
